<svg id="svg" version="1.1" width="1215" height="732" xmlns="http://www.w3.org/2000/svg" xmlns:xlink="http://www.w3.org/1999/xlink" ><g id="svgg"><path id="path0" d="M266.626 4.900 C 254.360 12.389,251.825 14.871,245.236 25.844 L 243.457 28.807 243.278 86.914 C 243.110 141.755,243.066 145.150,242.500 147.325 C 240.866 153.593,238.352 156.056,232.025 157.585 C 229.110 158.289,111.371 158.701,103.905 158.033 C 89.896 156.779,86.020 153.365,85.375 141.712 L 85.174 138.075 86.483 135.292 C 88.167 131.716,89.180 130.774,93.725 128.564 L 97.458 126.749 108.665 126.749 L 119.873 126.749 124.052 125.061 C 142.595 117.574,142.222 118.817,142.222 64.443 L 142.222 30.089 139.719 25.333 C 133.162 12.876,130.311 10.501,116.245 5.770 L 109.856 3.621 66.442 3.621 L 23.027 3.621 18.180 6.028 C 8.609 10.780,6.959 12.414,3.244 20.817 L 1.641 24.442 1.726 115.349 L 1.811 206.255 3.699 211.827 C 8.070 224.726,10.007 226.946,23.129 234.102 L 29.115 237.366 161.471 237.363 L 293.827 237.360 299.561 235.713 C 314.739 231.353,317.558 229.090,324.986 215.309 L 327.737 210.206 327.915 165.597 C 328.104 118.273,328.089 118.713,329.675 115.556 C 331.423 112.075,332.671 111.883,355.391 111.608 L 373.827 111.384 377.444 110.507 C 385.568 108.535,388.053 106.496,395.144 95.986 L 398.025 91.717 398.025 56.461 L 398.025 21.205 395.144 16.935 C 388.061 6.437,385.609 4.423,377.444 2.394 L 373.827 1.496 323.128 1.427 L 272.428 1.358 266.626 4.900 M372.911 3.262 C 384.225 5.231,386.373 6.748,394.019 18.178 L 396.379 21.706 396.379 56.461 L 396.379 91.215 394.020 94.743 C 386.837 105.490,384.862 107.056,375.802 109.192 C 373.875 109.647,370.485 109.772,355.062 109.959 C 330.464 110.256,329.425 110.507,327.527 116.608 C 326.380 120.292,326.261 125.083,326.258 167.699 L 326.255 209.472 323.579 214.448 C 316.153 228.257,314.060 229.879,297.624 234.553 L 293.519 235.720 161.527 235.720 L 29.536 235.720 24.978 233.251 C 11.067 225.715,9.530 224.015,5.430 211.625 L 3.325 205.267 3.308 115.012 L 3.290 24.756 4.965 21.042 C 8.324 13.598,9.714 12.191,17.738 8.105 L 23.312 5.267 66.595 5.267 L 109.878 5.267 114.271 6.772 C 129.616 12.028,131.438 13.457,137.744 25.184 L 140.576 30.450 140.576 64.760 C 140.576 118.071,141.092 116.284,123.659 123.425 L 118.758 125.432 107.579 125.432 L 96.399 125.432 92.701 127.237 C 88.428 129.323,86.755 130.811,85.338 133.789 C 83.671 137.290,83.511 138.097,83.729 141.875 C 84.453 154.370,89.119 158.460,104.033 159.672 C 111.864 160.308,229.018 159.941,231.934 159.271 C 239.466 157.541,242.336 154.710,244.215 147.160 C 244.693 145.238,244.758 139.144,244.852 87.315 L 244.956 29.609 247.798 24.928 C 253.492 15.548,255.798 13.366,267.451 6.331 L 272.757 3.128 320.658 2.961 C 347.004 2.869,368.727 2.758,368.931 2.714 C 369.136 2.670,370.927 2.916,372.911 3.262 M50.864 28.774 C 40.613 31.389,38.175 34.599,37.221 46.732 C 36.991 49.649,36.873 74.149,36.874 118.502 L 36.876 185.844 39.526 191.260 C 45.155 202.761,47.500 204.468,62.616 208.060 L 66.795 209.053 160.024 209.053 C 282.268 209.053,273.141 209.906,285.679 197.310 L 290.700 192.267 290.700 147.645 L 290.700 103.023 293.058 99.495 C 302.856 84.837,304.331 84.280,333.349 84.280 C 343.188 84.280,351.316 84.151,351.414 83.994 C 351.511 83.837,352.198 83.611,352.942 83.492 C 359.740 82.405,360.817 78.707,360.817 56.461 C 360.817 36.580,360.061 32.569,355.919 30.470 C 352.865 28.922,352.224 28.886,325.832 28.739 L 300.882 28.601 296.367 30.983 C 286.806 36.028,285.039 37.701,281.190 45.357 L 279.835 48.051 279.834 100.487 L 279.833 152.922 278.664 157.366 C 273.825 175.758,271.082 178.446,250.824 184.659 L 245.353 186.337 165.524 186.337 L 85.695 186.337 79.874 184.366 C 68.334 180.458,66.235 178.790,58.658 167.505 L 56.955 164.968 56.955 140.604 L 56.955 116.240 59.331 112.688 C 65.806 103.008,67.286 102.415,85.033 102.397 L 95.169 102.387 98.070 101.266 C 103.470 99.181,104.878 98.185,109.225 93.378 L 111.618 90.731 111.529 67.644 L 111.440 44.556 108.994 41.291 C 102.522 32.649,99.729 30.846,89.461 28.680 L 84.601 27.654 69.872 27.668 L 55.144 27.683 50.864 28.774 M89.126 30.291 C 99.052 32.457,101.257 33.845,107.195 41.666 L 109.959 45.307 109.959 67.744 L 109.959 90.181 106.914 93.368 C 103.403 97.041,102.385 97.750,98.137 99.479 L 95.035 100.741 85.131 100.743 C 66.721 100.748,64.867 101.509,57.843 111.935 L 55.292 115.722 55.304 140.575 L 55.317 165.428 57.172 168.228 C 64.776 179.709,67.662 182.008,79.473 185.994 L 85.366 187.984 165.451 187.984 L 245.536 187.984 251.410 186.196 C 271.989 179.933,275.143 176.834,280.181 157.924 L 281.481 153.042 281.481 100.707 L 281.481 48.373 282.345 46.656 C 286.247 38.896,287.615 37.560,296.600 32.737 L 301.231 30.250 325.842 30.377 C 345.965 30.481,350.816 30.592,352.443 30.985 C 358.679 32.491,359.012 33.785,359.012 56.461 C 359.012 78.966,358.480 81.036,352.483 81.851 C 351.463 81.990,351.048 82.164,351.326 82.336 C 351.565 82.483,343.095 82.655,332.505 82.718 L 313.251 82.832 309.634 83.721 C 301.488 85.723,299.021 87.749,291.934 98.252 L 289.053 102.522 289.053 147.046 L 289.053 191.570 284.362 196.308 C 276.323 204.427,273.733 205.500,258.786 206.900 C 254.061 207.343,241.539 207.407,160.021 207.405 L 66.667 207.402 60.247 205.751 C 48.047 202.615,46.025 201.012,40.973 190.476 L 38.519 185.357 38.524 117.946 C 38.527 77.102,38.655 49.009,38.850 46.663 C 40.117 31.374,43.707 29.378,70.031 29.328 L 84.589 29.300 89.126 30.291 " stroke="none" fill="#000000" fill-rule="evenodd"></path></g></svg>